<?xml version="1.0" ?><svg viewBox="0 0 64 64" xmlns="http://www.w3.org/2000/svg"><g id="Glyph"><g data-name="Glyph" id="Glyph-2"><path d="M55.93,54.12,46.19,37.26a20.5,20.5,0,1,0-28.38,0L8.07,54.12a1,1,0,0,0,0,1.08,1,1,0,0,0,1,.41l8.22-1.54L20.12,62a1,1,0,0,0,1.81.16L32,44.68,42.07,62.12A1,1,0,0,0,43.88,62l2.78-7.89,8.22,1.54a1,1,0,0,0,1-.41A1,1,0,0,0,55.93,54.12Zm-36.4.15-.59-1.67A1,1,0,0,0,17.82,52l-1.76.32,6.65-11.52a20.48,20.48,0,0,0,3.77,1.47Zm-1-31.77A13.5,13.5,0,1,1,32,36,13.52,13.52,0,0,1,18.5,22.5ZM46.18,52a1,1,0,0,0-1.12.65l-.59,1.67L37.52,42.22a20.48,20.48,0,0,0,3.77-1.47l6.65,11.52Z"/><path d="M38.46,24.49a.5.5,0,0,0-.14.42l.36,3a2.48,2.48,0,0,1-1,2.33,2.59,2.59,0,0,1-2.6.28l-2.81-1.26a.55.55,0,0,0-.5,0l-2.81,1.26a2.59,2.59,0,0,1-2.6-.28,2.48,2.48,0,0,1-1-2.33l.36-3a.5.5,0,0,0-.14-.42l-2.1-2.22a2.5,2.5,0,0,1-.57-2.5,2.56,2.56,0,0,1,2-1.73l3-.59a.58.58,0,0,0,.39-.27l1.51-2.64a2.59,2.59,0,0,1,4.48,0l1.51,2.64a.58.58,0,0,0,.39.27l3,.59a2.56,2.56,0,0,1,2,1.73,2.5,2.5,0,0,1-.57,2.5Z"/></g></g></svg>